<?xml version="1.0" encoding="UTF-8"?>
<svg width="64" height="64" viewBox="0 0 64 64" fill="none" xmlns="http://www.w3.org/2000/svg">
  <rect width="64" height="64" rx="8" fill="#3178C6"/>
  <path d="M18.25 20.25H45.75V23.75H35V43.75H31.5V23.75H18.25V20.25Z" fill="white"/>
  <path d="M37.5 28.5H41V31.5C41.5 31.25 42.1 31.1 42.75 31.1C43.4 31.1 44 31.25 44.5 31.5C45 31.75 45.4 32.1 45.7 32.6C46 33.1 46.25 33.65 46.4 34.25C46.55 34.85 46.6 35.5 46.6 36.2V43.75H43.1V36.7C43.1 36.1 43.05 35.6 42.95 35.2C42.85 34.8 42.7 34.5 42.5 34.25C42.3 34 42.05 33.85 41.75 33.75C41.45 33.65 41.1 33.6 40.7 33.6C40.3 33.6 39.95 33.65 39.65 33.75C39.35 33.85 39.1 34 38.9 34.25C38.7 34.5 38.55 34.8 38.45 35.2C38.35 35.6 38.3 36.1 38.3 36.7V43.75H37.5V28.5Z" fill="white"/>
</svg> 